<?xml version="1.0" encoding="iso-8859-1"?>
<svg version="1.1" id="Layer_1" xmlns="http://www.w3.org/2000/svg" xmlns:xlink="http://www.w3.org/1999/xlink" x="0px" y="0px"
	 viewBox="0 0 512 512" style="enable-background:new 0 0 512 512;" xml:space="preserve">
<g>
	<rect x="70.962" y="97.071" style="fill:#F75534;" width="45.275" height="328.171"/>
	<rect x="395.86" y="97.071" style="fill:#F75534;" width="45.275" height="328.171"/>
</g>
<path style="fill:#FFE666;" d="M512,35.032v27.551c0,2.371-1.929,4.311-4.311,4.311H4.311C1.93,66.894,0,64.954,0,62.583V35.032
	c0-2.555,2.188-4.548,4.732-4.29c2.922,0.292,7.178,0.701,12.73,1.186C51.437,34.902,133.95,40.766,256,40.766
	c142.002,0,230.487-7.944,251.268-10.025C509.812,30.484,512,32.477,512,35.032z"/>
<path style="fill:#EDBF31;" d="M19.402,66.894H4.311C1.93,66.894,0,64.954,0,62.583V35.032c0-2.555,2.188-4.548,4.732-4.29
	c2.922,0.292,7.178,0.701,12.73,1.186c-0.42,0.884-0.894,2.048-0.894,3.104v27.551C16.567,64.954,17.84,66.894,19.402,66.894z"/>
<path style="fill:#F75534;" d="M482.358,66.894c0,5.497-1.466,10.65-4.053,15.08c-1.304,2.296-2.932,4.398-4.786,6.252
	c-5.12,5.12-12.073,8.407-19.79,8.796c-0.517,0.032-1.034,0.043-1.552,0.043H59.824c-11.167,0-20.932-6.069-26.128-15.09
	c-2.587-4.43-4.053-9.583-4.053-15.08H482.358z"/>
<path style="fill:#BD391E;" d="M79.722,97.064H59.824c-11.167,0-20.932-6.069-26.128-15.09c-2.587-4.43-4.053-9.583-4.053-15.08
	h18.459c0,5.497,1.476,10.65,4.042,15.08C57.306,90.996,68.618,97.064,79.722,97.064z"/>
<rect x="233.367" y="97.071" style="fill:#F75534;" width="45.275" height="60.709"/>
<g>
	<rect x="233.367" y="97.071" style="fill:#BD391E;" width="19.402" height="49.037"/>
	<rect x="70.962" y="97.071" style="fill:#BD391E;" width="19.402" height="328.171"/>
	<rect x="395.86" y="97.071" style="fill:#BD391E;" width="19.402" height="328.171"/>
</g>
<path style="fill:#362928;" d="M111.832,481.281h-36.65c-2.381,0-4.311-1.93-4.311-4.311v-51.731h45.271v51.731
	C116.144,479.35,114.213,481.281,111.832,481.281z"/>
<path style="fill:#2E2322;" d="M90.365,476.968v-51.731H70.871v51.731c0,2.381,1.93,4.311,4.311,4.311h19.494
	C92.295,481.281,90.365,479.35,90.365,476.968z"/>
<path style="fill:#362928;" d="M436.727,481.281h-36.649c-2.381,0-4.311-1.93-4.311-4.311v-51.731h45.271v51.731
	C441.038,479.35,439.107,481.281,436.727,481.281z"/>
<path style="fill:#F75534;" d="M482.358,150.41v21.558c0,2.382-1.843,4.311-4.118,4.311H33.76c-2.275,0-4.118-1.93-4.118-4.311
	V150.41c0-2.371,1.843-4.311,4.118-4.311H478.24C480.515,146.098,482.358,148.039,482.358,150.41z"/>
<path style="fill:#2E2322;" d="M415.35,476.968v-51.731h-19.493v51.731c0,2.381,1.93,4.311,4.311,4.311h19.494
	C417.28,481.281,415.35,479.35,415.35,476.968z"/>
<path style="fill:#BD391E;" d="M49.044,176.279H33.76c-2.275,0-4.118-1.93-4.118-4.311V150.41c0-2.371,1.843-4.311,4.118-4.311
	h15.285c-1.476,0-2.662,1.94-2.662,4.311v21.558C46.382,174.349,47.568,176.279,49.044,176.279z"/>
<g>
</g>
<g>
</g>
<g>
</g>
<g>
</g>
<g>
</g>
<g>
</g>
<g>
</g>
<g>
</g>
<g>
</g>
<g>
</g>
<g>
</g>
<g>
</g>
<g>
</g>
<g>
</g>
<g>
</g>
</svg>
