<?xml version="1.0" standalone="no"?>
<!DOCTYPE svg PUBLIC "-//W3C//DTD SVG 20010904//EN"
 "http://www.w3.org/TR/2001/REC-SVG-20010904/DTD/svg10.dtd">
<svg version="1.0" xmlns="http://www.w3.org/2000/svg"
 width="512.000000pt" height="512.000000pt" viewBox="0 0 512.000000 512.000000"
 preserveAspectRatio="xMidYMid meet">
<metadata>
Created by potrace 1.14, written by Peter Selinger 2001-2017
</metadata>
<g transform="translate(0.000000,512.000000) scale(0.100000,-0.100000)"
fill="#000000" stroke="none">
<path d="M2253 5100 c-841 -127 -1474 -750 -1786 -1760 -41 -133 -98 -368
-112 -465 -3 -23 -7 -52 -10 -65 -5 -24 -20 -139 -29 -220 -32 -279 -24 -629
19 -880 132 -762 632 -1337 1374 -1580 142 -47 366 -95 526 -114 114 -13 569
-16 620 -3 11 3 47 8 80 11 33 4 83 11 110 16 28 5 61 11 75 14 55 9 230 57
310 84 525 181 928 520 1157 977 61 120 140 329 158 414 2 9 12 57 24 106 18
82 24 119 35 210 26 212 22 550 -9 805 -11 94 -35 252 -39 259 -2 3 -7 27 -10
52 -10 77 -81 345 -126 479 -67 196 -155 396 -253 570 -32 57 -151 242 -173
269 -7 9 -35 43 -61 77 -78 98 -215 238 -313 319 -46 39 -207 155 -214 155 -2
0 -33 17 -67 38 -194 116 -392 182 -709 237 -19 4 -129 8 -245 10 -166 2 -236
-1 -332 -15z"/>
</g>
</svg>
